<svg id="Capa_1" enable-background="new 0 0 512 512" height="512" viewBox="0 0 512 512" width="512" xmlns="http://www.w3.org/2000/svg"><g><g><g><path d="m371.945 347.652h-32.274l28.358-130.398c2.156-9.913-10.086-16.393-17.071-9.036l-105.595 111.212c-10.109 10.647-2.562 28.221 12.12 28.221h32.274l-28.357 130.398c-2.156 9.913 10.086 16.393 17.071 9.036l105.594-111.212c10.11-10.647 2.562-28.221-12.12-28.221z" fill="#ffc751"/><path d="m384.066 375.872-105.601 111.213c-6.972 7.355-19.224.871-17.063-9.028l7.006-32.191c38.291-32.801 64.312-97.27 64.312-171.43 0-15.041-1.063-29.681-3.102-43.747l21.333-22.466c6.989-7.355 19.241-.889 17.08 9.028l-28.357 130.403h32.278c14.676.001 22.223 17.569 12.114 28.218z" fill="#ffaf40"/></g><path d="m289.362 273.094-27.032 28.47c-6.445 6.788-6.307 17.475.312 24.094l.247.247c6.866 6.866 18.041 6.721 24.727-.32l27.033-28.472c6.474-6.819 6.305-17.569-.39-24.171-.083-.082-.166-.163-.248-.245-6.882-6.789-17.993-6.613-24.649.397z" fill="#ffe059"/></g><g><path d="m489.676 181.266c-15.043-15.043-34.808-22.471-54.524-22.309-14.837-26.424-42.182-44.879-74.014-47.33-21.64-52.734-73.489-89.878-134.021-89.878-65.614 0-121.025 43.64-138.819 103.476-49.19 2.52-88.298 43.201-88.298 93.017 0 51.441 41.701 93.141 93.142 93.141 22.334 0 42.829-7.864 58.875-20.97 21.897 13.307 47.604 20.97 75.1 20.97 30.357 0 58.528-9.348 81.805-25.312 13.332 7.364 28.658 11.56 44.965 11.56 11.006 0 21.563-1.914 31.364-5.419 29.933 26.56 75.754 25.517 104.425-3.153 29.766-29.766 29.766-78.027 0-107.793z" fill="#b5b1a4"/><path d="m489.678 289.062c-28.67 28.67-74.49 29.711-104.429 3.153-9.803 3.496-20.355 5.411-31.365 5.411-16.307 0-31.626-4.194-44.967-11.551-23.269 15.964-51.439 25.309-81.806 25.309-27.494 0-53.198-7.67-75.093-20.969-16.047 13.102-36.548 20.969-58.88 20.969-51.439 0-93.138-41.699-93.138-93.138 0-37.359 21.999-69.588 53.75-84.428 4.808 35.902 23.019 70.046 53.656 94.304 51.45 40.71 121.985 40.887 173.071 5.006 40.138 28.545 96.052 20.917 126.97-18.138 15.88-20.074 22.166-44.654 19.523-68.225 3.039 3.83 5.776 7.909 8.18 12.196 19.72-.166 39.482 7.264 54.53 22.301 29.761 29.773 29.761 78.027-.002 107.8z" fill="#8f8b81"/><path d="m489.678 289.062c-28.67 28.67-74.49 29.711-104.429 3.153-9.803 3.496-20.355 5.411-31.365 5.411-16.307 0-31.626-4.194-44.967-11.551-23.269 15.964-51.439 25.309-81.806 25.309-27.494 0-53.198-7.67-75.093-20.969-16.047 13.102-36.548 20.969-58.88 20.969-41.418 0-76.519-27.036-88.622-64.416 16.952 23.029 44.259 37.963 75.041 37.963 22.332 0 42.833-7.867 58.88-20.969 21.895 13.3 47.599 20.969 75.093 20.969 30.366 0 58.537-9.345 81.806-25.309 13.341 7.357 28.66 11.551 44.966 11.551 11.01 0 21.562-1.915 31.365-5.411 29.939 26.557 75.759 25.517 104.429-3.153 20.251-20.261 26.724-49.077 19.408-74.802 23.791 29.929 21.845 73.574-5.826 101.255z" fill="#706c64"/><g fill="#d8d4c9"><path d="m398.87 145.909c.074-.074.148-.149.222-.223 7.389-7.421 5.483-20.014-3.896-24.673-12.446-6.183-26.47-9.662-41.313-9.662-41.44 0-76.552 27.064-88.639 64.48-3.24 10.029 4.162 20.319 14.702 20.319h.314c6.769 0 12.665-4.427 14.768-10.861 8.097-24.772 31.412-42.719 58.855-42.719 9.826 0 19.119 2.307 27.375 6.402 5.879 2.916 12.982 1.587 17.612-3.063z"/><path d="m207.789 23.041c-62.404 8.321-112.245 56.38-123.229 117.907-1.7 9.523 5.726 18.242 15.4 18.242 7.591 0 14.027-5.47 15.381-12.939 8.706-48.013 47.691-85.612 96.398-92.233 7.721-1.05 13.534-7.539 13.534-15.331v-.311c-.001-9.343-8.226-16.57-17.484-15.335z"/></g></g><g><g><path d="m218.346 276.418h-32.274l28.358-130.398c2.156-9.913-10.086-16.393-17.071-9.036l-105.595 111.213c-10.109 10.647-2.562 28.221 12.12 28.221h32.274l-28.358 130.397c-2.156 9.913 10.086 16.393 17.071 9.036l105.594-111.212c10.11-10.647 2.563-28.221-12.119-28.221z" fill="#ffc751"/><path d="m230.467 304.638-105.602 111.214c-6.972 7.355-19.224.871-17.063-9.028l7.006-32.191c38.291-32.801 64.312-97.27 64.312-171.43 0-15.041-1.063-29.681-3.102-43.747l21.333-22.466c6.989-7.355 19.241-.889 17.08 9.028l-28.357 130.403h32.278c14.677 0 22.223 17.568 12.115 28.217z" fill="#ffaf40"/></g><path d="m135.763 201.86-27.032 28.47c-6.445 6.788-6.307 17.475.312 24.094l.247.247c6.866 6.866 18.041 6.721 24.727-.32l27.033-28.472c6.474-6.819 6.305-17.569-.39-24.171-.083-.082-.166-.163-.248-.245-6.882-6.788-17.993-6.613-24.649.397z" fill="#ffe059"/></g></g></svg>